<?xml version="1.0" encoding="utf-8"?>
<!-- Generator: Adobe Illustrator 15.0.0, SVG Export Plug-In . SVG Version: 6.00 Build 0)  -->
<!DOCTYPE svg PUBLIC "-//W3C//DTD SVG 1.1//EN" "http://www.w3.org/Graphics/SVG/1.1/DTD/svg11.dtd">
<svg version="1.1" id="图层_1" xmlns="http://www.w3.org/2000/svg" xmlns:xlink="http://www.w3.org/1999/xlink" x="0px" y="0px"
	 width="595.28px" height="841.89px" viewBox="0 0 595.28 841.89" enable-background="new 0 0 595.28 841.89" xml:space="preserve">
<g>
	<path d="M487.495,547.002c0,15.654-12.69,28.346-28.346,28.346H136.132c-15.656,0-28.347-12.691-28.347-28.346V223.984
		c0-15.656,12.691-28.347,28.347-28.347h323.018c15.655,0,28.346,12.691,28.346,28.347V547.002z"/>
</g>
<g>
	<path fill="#FFFFFF" d="M145.095,476.888h80.469c-7.292-9.896-16.823-22.188-28.594-36.875l32.031-18.438H178.22V304.388h240.625
		v117.188h-58.438l38.438,13.75l-29.219,41.563h82.344v40H145.095V476.888z M154.47,239.7h288.125v40H154.47V239.7z M375.095,383.45
		v-40.938H221.97v40.938H375.095z M273.532,465.325l-19.531,11.563h63.906c11.25-17.603,22.29-36.04,33.125-55.313H239.313
		C255.251,441.263,266.657,455.848,273.532,465.325z"/>
</g>
</svg>
