<?xml version="1.0" encoding="utf-8"?>
<!-- Generator: Adobe Illustrator 15.0.0, SVG Export Plug-In . SVG Version: 6.00 Build 0)  -->
<!DOCTYPE svg PUBLIC "-//W3C//DTD SVG 1.1//EN" "http://www.w3.org/Graphics/SVG/1.1/DTD/svg11.dtd">
<svg version="1.1" id="图层_1" xmlns="http://www.w3.org/2000/svg" xmlns:xlink="http://www.w3.org/1999/xlink" x="0px" y="0px"
	 width="612px" height="792px" viewBox="0 0 612 792" enable-background="new 0 0 612 792" xml:space="preserve">
<g>
	<g>
		<path fill-rule="evenodd" clip-rule="evenodd" d="M323.019,334c6.495,5.018,4.322,22.294,1,29.006
			c19.158-2.18,29.797-12.879,42.01-22.005c0.46,21.465-6.079,35.93-14.003,49.011c3.533,1.17,11.476-1.838,16.003-3
			c-4.016,14.988-13.675,24.334-27.006,30.007c-7.17,57.957-102.253,52.979-97.022-14.003c1.206-15.44,7.159-24.317,14.003-31.007
			C276.676,353.756,312.808,361.411,323.019,334z M273.007,393.014c5.803,2.199,15.572,0.433,23.005,1
			c-7.106,12.824-29.945,19.712-22.005,41.009c13.126,1.596,32.9,1.703,46.01,0c2.353-6.27,1.05-16.87-4.001-19.004
			c-1.51,6.157-13.742,1.594-20.004,3c7.66-13.679,25.591-17.085,22.005-42.009c-11.559,0.678-33.642,3.79-42.01-2
			C272.687,378.567,270.663,386.908,273.007,393.014z"/>
	</g>
</g>
</svg>
