<?xml version="1.0" encoding="utf-8"?>
<!-- Generator: Adobe Illustrator 15.0.0, SVG Export Plug-In . SVG Version: 6.00 Build 0)  -->
<!DOCTYPE svg PUBLIC "-//W3C//DTD SVG 1.1//EN" "http://www.w3.org/Graphics/SVG/1.1/DTD/svg11.dtd">
<svg version="1.1" id="图层_1" xmlns="http://www.w3.org/2000/svg" xmlns:xlink="http://www.w3.org/1999/xlink" x="0px" y="0px"
	 width="595.28px" height="841.89px" viewBox="0 0 595.28 841.89" enable-background="new 0 0 595.28 841.89" xml:space="preserve">
<g>
	<path fill-rule="evenodd" clip-rule="evenodd" d="M361.979,476.193c0,15.654-12.691,28.346-28.347,28.346H221.139
		c-15.655,0-28.347-12.691-28.347-28.346V363.698c0-15.655,12.691-28.347,28.347-28.347h112.494
		c15.655,0,28.347,12.691,28.347,28.347V476.193z"/>
</g>
<path fill-rule="evenodd" clip-rule="evenodd" fill="#FFFFFF" d="M241.011,350.527c-0.408,6.842-2.615,11.885-4.5,17.25
	c12.752,1.748,28.749,0.251,42.75,0.75c1.508,2.242,0.424,7.076,0.75,10.5c-8,0-16,0-24,0c0,12,0,24,0,35.999c9,0,18,0,27,0
	c1.197,2.332,1.197,8.919,0,11.25c-9.146-0.104-17.268-1.231-27-0.749c-3.722,15.871,15.684,23.067,21,33.75c0,6,0,12,0,17.999
	c-8.164-10.335-16.586-20.414-24.75-30.749c-7.542,12.959-13.846,27.152-26.25,35.25c-5,0-10,0-15,0
	c10.056-16.205,27.451-31.542,33-54.75c-9.253-1.747-21.748-0.252-32.25-0.751c2.449-4.801,6.803-7.696,10.5-11.25
	c7.25,0,14.5,0,21.75,0c3.645-9.935-0.034-23.406,0.75-35.249c-1.775-1.725-6.731-0.269-9.75-0.75
	c-5.505,7.245-7.955,17.545-21.75,16.5C221.471,382.474,219.593,352.869,241.011,350.527z"/>
<path fill-rule="evenodd" clip-rule="evenodd" fill="#FFFFFF" d="M343.761,368.527c0,33,0,66,0,99c-7.25,0-14.5,0-21.75,0
	c-7.138,3.612-10.982,10.517-18.75,13.499c-1.016-5.483-4.156-8.844-6-13.499c-3,0-6,0-9,0c0-33.25,0-66.5,0-99.75
	C306.519,368.268,326.75,366.788,343.761,368.527z M298.761,378.277c0,25.5,0,51,0,76.501c4.576,2.423,4.85,9.149,8.25,12.749
	c7.195-5.305,10.905-14.095,25.5-12c0-25.749,0-51.5,0-77.25C321.261,378.277,310.011,378.277,298.761,378.277z"/>
</svg>
